<?xml version="1.0" encoding="UTF-8" standalone="no"?>
<!DOCTYPE svg PUBLIC "-//W3C//DTD SVG 1.1//EN"
 "http://www.w3.org/Graphics/SVG/1.1/DTD/svg11.dtd">
<!-- Generated by graphviz version 2.42.4 (0)
 -->
<!-- Pages: 1 -->
<svg width="519pt" height="765pt"
 viewBox="0.00 0.00 519.00 765.00" xmlns="http://www.w3.org/2000/svg" xmlns:xlink="http://www.w3.org/1999/xlink">
<g id="graph0" class="graph" transform="scale(1 1) rotate(0) translate(4 761)">
<polygon fill="white" stroke="transparent" points="-4,4 -4,-761 515,-761 515,4 -4,4"/>
<!-- 140384403542000 -->
<g id="node1" class="node">
<title>140384403542000</title>
<polygon fill="#caff70" stroke="black" points="334,-31 269,-31 269,0 334,0 334,-31"/>
<text text-anchor="middle" x="301.5" y="-7" font-family="monospace" font-size="10.00"> (1, 10)</text>
</g>
<!-- 140384388729056 -->
<g id="node2" class="node">
<title>140384388729056</title>
<polygon fill="lightgrey" stroke="black" points="352,-86 251,-86 251,-67 352,-67 352,-86"/>
<text text-anchor="middle" x="301.5" y="-74" font-family="monospace" font-size="10.00">AddmmBackward0</text>
</g>
<!-- 140384388729056&#45;&gt;140384403542000 -->
<g id="edge28" class="edge">
<title>140384388729056&#45;&gt;140384403542000</title>
<path fill="none" stroke="black" d="M301.5,-66.79C301.5,-60.07 301.5,-50.4 301.5,-41.34"/>
<polygon fill="black" stroke="black" points="305,-41.19 301.5,-31.19 298,-41.19 305,-41.19"/>
</g>
<!-- 140384388742784 -->
<g id="node3" class="node">
<title>140384388742784</title>
<polygon fill="lightgrey" stroke="black" points="236,-141 135,-141 135,-122 236,-122 236,-141"/>
<text text-anchor="middle" x="185.5" y="-129" font-family="monospace" font-size="10.00">AccumulateGrad</text>
</g>
<!-- 140384388742784&#45;&gt;140384388729056 -->
<g id="edge1" class="edge">
<title>140384388742784&#45;&gt;140384388729056</title>
<path fill="none" stroke="black" d="M204.14,-121.98C222.8,-113.46 251.75,-100.23 273.24,-90.41"/>
<polygon fill="black" stroke="black" points="274.88,-93.51 282.52,-86.17 271.97,-87.14 274.88,-93.51"/>
</g>
<!-- 140384374767696 -->
<g id="node4" class="node">
<title>140384374767696</title>
<polygon fill="lightblue" stroke="black" points="218,-207 153,-207 153,-177 218,-177 218,-207"/>
<text text-anchor="middle" x="185.5" y="-195" font-family="monospace" font-size="10.00">fc2.bias</text>
<text text-anchor="middle" x="185.5" y="-184" font-family="monospace" font-size="10.00"> (10)</text>
</g>
<!-- 140384374767696&#45;&gt;140384388742784 -->
<g id="edge2" class="edge">
<title>140384374767696&#45;&gt;140384388742784</title>
<path fill="none" stroke="black" d="M185.5,-176.84C185.5,-169.21 185.5,-159.7 185.5,-151.45"/>
<polygon fill="black" stroke="black" points="189,-151.27 185.5,-141.27 182,-151.27 189,-151.27"/>
</g>
<!-- 140384096890416 -->
<g id="node5" class="node">
<title>140384096890416</title>
<polygon fill="lightgrey" stroke="black" points="349,-141 254,-141 254,-122 349,-122 349,-141"/>
<text text-anchor="middle" x="301.5" y="-129" font-family="monospace" font-size="10.00">ReluBackward0</text>
</g>
<!-- 140384096890416&#45;&gt;140384388729056 -->
<g id="edge3" class="edge">
<title>140384096890416&#45;&gt;140384388729056</title>
<path fill="none" stroke="black" d="M301.5,-121.75C301.5,-114.8 301.5,-104.85 301.5,-96.13"/>
<polygon fill="black" stroke="black" points="305,-96.09 301.5,-86.09 298,-96.09 305,-96.09"/>
</g>
<!-- 140384099954464 -->
<g id="node6" class="node">
<title>140384099954464</title>
<polygon fill="lightgrey" stroke="black" points="344,-201.5 243,-201.5 243,-182.5 344,-182.5 344,-201.5"/>
<text text-anchor="middle" x="293.5" y="-189.5" font-family="monospace" font-size="10.00">AddmmBackward0</text>
</g>
<!-- 140384099954464&#45;&gt;140384096890416 -->
<g id="edge4" class="edge">
<title>140384099954464&#45;&gt;140384096890416</title>
<path fill="none" stroke="black" d="M294.68,-182.37C295.79,-174.25 297.49,-161.81 298.92,-151.39"/>
<polygon fill="black" stroke="black" points="302.43,-151.55 300.31,-141.17 295.49,-150.6 302.43,-151.55"/>
</g>
<!-- 140384099947648 -->
<g id="node7" class="node">
<title>140384099947648</title>
<polygon fill="lightgrey" stroke="black" points="193,-267.5 92,-267.5 92,-248.5 193,-248.5 193,-267.5"/>
<text text-anchor="middle" x="142.5" y="-255.5" font-family="monospace" font-size="10.00">AccumulateGrad</text>
</g>
<!-- 140384099947648&#45;&gt;140384099954464 -->
<g id="edge5" class="edge">
<title>140384099947648&#45;&gt;140384099954464</title>
<path fill="none" stroke="black" d="M162.86,-248.37C188.76,-237.39 233.67,-218.36 263.49,-205.72"/>
<polygon fill="black" stroke="black" points="265.13,-208.82 272.98,-201.7 262.4,-202.38 265.13,-208.82"/>
</g>
<!-- 140384374772656 -->
<g id="node8" class="node">
<title>140384374772656</title>
<polygon fill="lightblue" stroke="black" points="160,-339 95,-339 95,-309 160,-309 160,-339"/>
<text text-anchor="middle" x="127.5" y="-327" font-family="monospace" font-size="10.00">fc1.bias</text>
<text text-anchor="middle" x="127.5" y="-316" font-family="monospace" font-size="10.00"> (32)</text>
</g>
<!-- 140384374772656&#45;&gt;140384099947648 -->
<g id="edge6" class="edge">
<title>140384374772656&#45;&gt;140384099947648</title>
<path fill="none" stroke="black" d="M130.83,-308.8C132.96,-299.7 135.75,-287.79 138.07,-277.9"/>
<polygon fill="black" stroke="black" points="141.55,-278.38 140.43,-267.84 134.74,-276.78 141.55,-278.38"/>
</g>
<!-- 140384099948704 -->
<g id="node9" class="node">
<title>140384099948704</title>
<polygon fill="lightgrey" stroke="black" points="321,-267.5 226,-267.5 226,-248.5 321,-248.5 321,-267.5"/>
<text text-anchor="middle" x="273.5" y="-255.5" font-family="monospace" font-size="10.00">ViewBackward0</text>
</g>
<!-- 140384099948704&#45;&gt;140384099954464 -->
<g id="edge7" class="edge">
<title>140384099948704&#45;&gt;140384099954464</title>
<path fill="none" stroke="black" d="M276.2,-248.37C279.13,-238.97 283.92,-223.67 287.71,-211.53"/>
<polygon fill="black" stroke="black" points="291.07,-212.49 290.72,-201.91 284.39,-210.41 291.07,-212.49"/>
</g>
<!-- 140384108515232 -->
<g id="node10" class="node">
<title>140384108515232</title>
<polygon fill="lightgrey" stroke="black" points="369,-333.5 178,-333.5 178,-314.5 369,-314.5 369,-333.5"/>
<text text-anchor="middle" x="273.5" y="-321.5" font-family="monospace" font-size="10.00">MaxPool2DWithIndicesBackward0</text>
</g>
<!-- 140384108515232&#45;&gt;140384099948704 -->
<g id="edge8" class="edge">
<title>140384108515232&#45;&gt;140384099948704</title>
<path fill="none" stroke="black" d="M273.5,-314.37C273.5,-305.16 273.5,-290.29 273.5,-278.27"/>
<polygon fill="black" stroke="black" points="277,-277.91 273.5,-267.91 270,-277.91 277,-277.91"/>
</g>
<!-- 140384099952400 -->
<g id="node11" class="node">
<title>140384099952400</title>
<polygon fill="lightgrey" stroke="black" points="321,-399.5 226,-399.5 226,-380.5 321,-380.5 321,-399.5"/>
<text text-anchor="middle" x="273.5" y="-387.5" font-family="monospace" font-size="10.00">ReluBackward0</text>
</g>
<!-- 140384099952400&#45;&gt;140384108515232 -->
<g id="edge9" class="edge">
<title>140384099952400&#45;&gt;140384108515232</title>
<path fill="none" stroke="black" d="M273.5,-380.37C273.5,-371.16 273.5,-356.29 273.5,-344.27"/>
<polygon fill="black" stroke="black" points="277,-343.91 273.5,-333.91 270,-343.91 277,-343.91"/>
</g>
<!-- 140384099947888 -->
<g id="node12" class="node">
<title>140384099947888</title>
<polygon fill="lightgrey" stroke="black" points="342,-460 205,-460 205,-441 342,-441 342,-460"/>
<text text-anchor="middle" x="273.5" y="-448" font-family="monospace" font-size="10.00">ConvolutionBackward0</text>
</g>
<!-- 140384099947888&#45;&gt;140384099952400 -->
<g id="edge10" class="edge">
<title>140384099947888&#45;&gt;140384099952400</title>
<path fill="none" stroke="black" d="M273.5,-440.87C273.5,-432.75 273.5,-420.31 273.5,-409.89"/>
<polygon fill="black" stroke="black" points="277,-409.67 273.5,-399.67 270,-409.67 277,-409.67"/>
</g>
<!-- 140384099949904 -->
<g id="node13" class="node">
<title>140384099949904</title>
<polygon fill="lightgrey" stroke="black" points="205,-515 14,-515 14,-496 205,-496 205,-515"/>
<text text-anchor="middle" x="109.5" y="-503" font-family="monospace" font-size="10.00">MaxPool2DWithIndicesBackward0</text>
</g>
<!-- 140384099949904&#45;&gt;140384099947888 -->
<g id="edge11" class="edge">
<title>140384099949904&#45;&gt;140384099947888</title>
<path fill="none" stroke="black" d="M135.85,-495.98C163.26,-487.13 206.39,-473.19 237.06,-463.28"/>
<polygon fill="black" stroke="black" points="238.5,-466.49 246.94,-460.08 236.35,-459.83 238.5,-466.49"/>
</g>
<!-- 140384099952448 -->
<g id="node14" class="node">
<title>140384099952448</title>
<polygon fill="lightgrey" stroke="black" points="157,-575.5 62,-575.5 62,-556.5 157,-556.5 157,-575.5"/>
<text text-anchor="middle" x="109.5" y="-563.5" font-family="monospace" font-size="10.00">ReluBackward0</text>
</g>
<!-- 140384099952448&#45;&gt;140384099949904 -->
<g id="edge12" class="edge">
<title>140384099952448&#45;&gt;140384099949904</title>
<path fill="none" stroke="black" d="M109.5,-556.37C109.5,-548.25 109.5,-535.81 109.5,-525.39"/>
<polygon fill="black" stroke="black" points="113,-525.17 109.5,-515.17 106,-525.17 113,-525.17"/>
</g>
<!-- 140384388693152 -->
<g id="node15" class="node">
<title>140384388693152</title>
<polygon fill="lightgrey" stroke="black" points="178,-636 41,-636 41,-617 178,-617 178,-636"/>
<text text-anchor="middle" x="109.5" y="-624" font-family="monospace" font-size="10.00">ConvolutionBackward0</text>
</g>
<!-- 140384388693152&#45;&gt;140384099952448 -->
<g id="edge13" class="edge">
<title>140384388693152&#45;&gt;140384099952448</title>
<path fill="none" stroke="black" d="M109.5,-616.87C109.5,-608.75 109.5,-596.31 109.5,-585.89"/>
<polygon fill="black" stroke="black" points="113,-585.67 109.5,-575.67 106,-585.67 113,-585.67"/>
</g>
<!-- 140384388692912 -->
<g id="node16" class="node">
<title>140384388692912</title>
<polygon fill="lightgrey" stroke="black" points="101,-691 0,-691 0,-672 101,-672 101,-691"/>
<text text-anchor="middle" x="50.5" y="-679" font-family="monospace" font-size="10.00">AccumulateGrad</text>
</g>
<!-- 140384388692912&#45;&gt;140384388693152 -->
<g id="edge14" class="edge">
<title>140384388692912&#45;&gt;140384388693152</title>
<path fill="none" stroke="black" d="M59.98,-671.98C68.7,-664.15 81.84,-652.34 92.4,-642.86"/>
<polygon fill="black" stroke="black" points="94.75,-645.46 99.85,-636.17 90.07,-640.25 94.75,-645.46"/>
</g>
<!-- 140384374771296 -->
<g id="node17" class="node">
<title>140384374771296</title>
<polygon fill="lightblue" stroke="black" points="98,-757 3,-757 3,-727 98,-727 98,-757"/>
<text text-anchor="middle" x="50.5" y="-745" font-family="monospace" font-size="10.00">conv1.weight</text>
<text text-anchor="middle" x="50.5" y="-734" font-family="monospace" font-size="10.00"> (8, 1, 3, 3)</text>
</g>
<!-- 140384374771296&#45;&gt;140384388692912 -->
<g id="edge15" class="edge">
<title>140384374771296&#45;&gt;140384388692912</title>
<path fill="none" stroke="black" d="M50.5,-726.84C50.5,-719.21 50.5,-709.7 50.5,-701.45"/>
<polygon fill="black" stroke="black" points="54,-701.27 50.5,-691.27 47,-701.27 54,-701.27"/>
</g>
<!-- 140384388684608 -->
<g id="node18" class="node">
<title>140384388684608</title>
<polygon fill="lightgrey" stroke="black" points="220,-691 119,-691 119,-672 220,-672 220,-691"/>
<text text-anchor="middle" x="169.5" y="-679" font-family="monospace" font-size="10.00">AccumulateGrad</text>
</g>
<!-- 140384388684608&#45;&gt;140384388693152 -->
<g id="edge16" class="edge">
<title>140384388684608&#45;&gt;140384388693152</title>
<path fill="none" stroke="black" d="M159.86,-671.98C150.99,-664.15 137.63,-652.34 126.89,-642.86"/>
<polygon fill="black" stroke="black" points="129.13,-640.17 119.32,-636.17 124.49,-645.41 129.13,-640.17"/>
</g>
<!-- 140384374778816 -->
<g id="node19" class="node">
<title>140384374778816</title>
<polygon fill="lightblue" stroke="black" points="208,-757 131,-757 131,-727 208,-727 208,-757"/>
<text text-anchor="middle" x="169.5" y="-745" font-family="monospace" font-size="10.00">conv1.bias</text>
<text text-anchor="middle" x="169.5" y="-734" font-family="monospace" font-size="10.00"> (8)</text>
</g>
<!-- 140384374778816&#45;&gt;140384388684608 -->
<g id="edge17" class="edge">
<title>140384374778816&#45;&gt;140384388684608</title>
<path fill="none" stroke="black" d="M169.5,-726.84C169.5,-719.21 169.5,-709.7 169.5,-701.45"/>
<polygon fill="black" stroke="black" points="173,-701.27 169.5,-691.27 166,-701.27 173,-701.27"/>
</g>
<!-- 140384099948080 -->
<g id="node20" class="node">
<title>140384099948080</title>
<polygon fill="lightgrey" stroke="black" points="324,-515 223,-515 223,-496 324,-496 324,-515"/>
<text text-anchor="middle" x="273.5" y="-503" font-family="monospace" font-size="10.00">AccumulateGrad</text>
</g>
<!-- 140384099948080&#45;&gt;140384099947888 -->
<g id="edge18" class="edge">
<title>140384099948080&#45;&gt;140384099947888</title>
<path fill="none" stroke="black" d="M273.5,-495.75C273.5,-488.8 273.5,-478.85 273.5,-470.13"/>
<polygon fill="black" stroke="black" points="277,-470.09 273.5,-460.09 270,-470.09 277,-470.09"/>
</g>
<!-- 140384374777536 -->
<g id="node21" class="node">
<title>140384374777536</title>
<polygon fill="lightblue" stroke="black" points="324,-581 223,-581 223,-551 324,-551 324,-581"/>
<text text-anchor="middle" x="273.5" y="-569" font-family="monospace" font-size="10.00">conv2.weight</text>
<text text-anchor="middle" x="273.5" y="-558" font-family="monospace" font-size="10.00"> (16, 8, 3, 3)</text>
</g>
<!-- 140384374777536&#45;&gt;140384099948080 -->
<g id="edge19" class="edge">
<title>140384374777536&#45;&gt;140384099948080</title>
<path fill="none" stroke="black" d="M273.5,-550.84C273.5,-543.21 273.5,-533.7 273.5,-525.45"/>
<polygon fill="black" stroke="black" points="277,-525.27 273.5,-515.27 270,-525.27 277,-525.27"/>
</g>
<!-- 140384099950096 -->
<g id="node22" class="node">
<title>140384099950096</title>
<polygon fill="lightgrey" stroke="black" points="443,-515 342,-515 342,-496 443,-496 443,-515"/>
<text text-anchor="middle" x="392.5" y="-503" font-family="monospace" font-size="10.00">AccumulateGrad</text>
</g>
<!-- 140384099950096&#45;&gt;140384099947888 -->
<g id="edge20" class="edge">
<title>140384099950096&#45;&gt;140384099947888</title>
<path fill="none" stroke="black" d="M373.38,-495.98C354.15,-487.42 324.27,-474.11 302.19,-464.28"/>
<polygon fill="black" stroke="black" points="303.53,-461.04 292.97,-460.17 300.68,-467.44 303.53,-461.04"/>
</g>
<!-- 140384374777856 -->
<g id="node23" class="node">
<title>140384374777856</title>
<polygon fill="lightblue" stroke="black" points="431,-581 354,-581 354,-551 431,-551 431,-581"/>
<text text-anchor="middle" x="392.5" y="-569" font-family="monospace" font-size="10.00">conv2.bias</text>
<text text-anchor="middle" x="392.5" y="-558" font-family="monospace" font-size="10.00"> (16)</text>
</g>
<!-- 140384374777856&#45;&gt;140384099950096 -->
<g id="edge21" class="edge">
<title>140384374777856&#45;&gt;140384099950096</title>
<path fill="none" stroke="black" d="M392.5,-550.84C392.5,-543.21 392.5,-533.7 392.5,-525.45"/>
<polygon fill="black" stroke="black" points="396,-525.27 392.5,-515.27 389,-525.27 396,-525.27"/>
</g>
<!-- 140384099952592 -->
<g id="node24" class="node">
<title>140384099952592</title>
<polygon fill="lightgrey" stroke="black" points="416,-267.5 339,-267.5 339,-248.5 416,-248.5 416,-267.5"/>
<text text-anchor="middle" x="377.5" y="-255.5" font-family="monospace" font-size="10.00">TBackward0</text>
</g>
<!-- 140384099952592&#45;&gt;140384099954464 -->
<g id="edge22" class="edge">
<title>140384099952592&#45;&gt;140384099954464</title>
<path fill="none" stroke="black" d="M366.17,-248.37C352.64,-238.06 329.78,-220.65 313.31,-208.09"/>
<polygon fill="black" stroke="black" points="314.99,-204.98 304.92,-201.7 310.75,-210.54 314.99,-204.98"/>
</g>
<!-- 140384099950288 -->
<g id="node25" class="node">
<title>140384099950288</title>
<polygon fill="lightgrey" stroke="black" points="488,-333.5 387,-333.5 387,-314.5 488,-314.5 488,-333.5"/>
<text text-anchor="middle" x="437.5" y="-321.5" font-family="monospace" font-size="10.00">AccumulateGrad</text>
</g>
<!-- 140384099950288&#45;&gt;140384099952592 -->
<g id="edge23" class="edge">
<title>140384099950288&#45;&gt;140384099952592</title>
<path fill="none" stroke="black" d="M429.41,-314.37C420.07,-304.4 404.49,-287.79 392.84,-275.36"/>
<polygon fill="black" stroke="black" points="395.24,-272.81 385.85,-267.91 390.13,-277.59 395.24,-272.81"/>
</g>
<!-- 140384374779216 -->
<g id="node26" class="node">
<title>140384374779216</title>
<polygon fill="lightblue" stroke="black" points="476,-405 399,-405 399,-375 476,-375 476,-405"/>
<text text-anchor="middle" x="437.5" y="-393" font-family="monospace" font-size="10.00">fc1.weight</text>
<text text-anchor="middle" x="437.5" y="-382" font-family="monospace" font-size="10.00"> (32, 64)</text>
</g>
<!-- 140384374779216&#45;&gt;140384099950288 -->
<g id="edge24" class="edge">
<title>140384374779216&#45;&gt;140384099950288</title>
<path fill="none" stroke="black" d="M437.5,-374.8C437.5,-365.7 437.5,-353.79 437.5,-343.9"/>
<polygon fill="black" stroke="black" points="441,-343.84 437.5,-333.84 434,-343.84 441,-343.84"/>
</g>
<!-- 140384365725920 -->
<g id="node27" class="node">
<title>140384365725920</title>
<polygon fill="lightgrey" stroke="black" points="467,-141 390,-141 390,-122 467,-122 467,-141"/>
<text text-anchor="middle" x="428.5" y="-129" font-family="monospace" font-size="10.00">TBackward0</text>
</g>
<!-- 140384365725920&#45;&gt;140384388729056 -->
<g id="edge25" class="edge">
<title>140384365725920&#45;&gt;140384388729056</title>
<path fill="none" stroke="black" d="M408.1,-121.98C387.48,-113.38 355.39,-99.99 331.81,-90.15"/>
<polygon fill="black" stroke="black" points="332.85,-86.79 322.28,-86.17 330.16,-93.25 332.85,-86.79"/>
</g>
<!-- 140384099943856 -->
<g id="node28" class="node">
<title>140384099943856</title>
<polygon fill="lightgrey" stroke="black" points="503,-201.5 402,-201.5 402,-182.5 503,-182.5 503,-201.5"/>
<text text-anchor="middle" x="452.5" y="-189.5" font-family="monospace" font-size="10.00">AccumulateGrad</text>
</g>
<!-- 140384099943856&#45;&gt;140384365725920 -->
<g id="edge26" class="edge">
<title>140384099943856&#45;&gt;140384365725920</title>
<path fill="none" stroke="black" d="M448.96,-182.37C445.56,-174.07 440.31,-161.28 435.98,-150.72"/>
<polygon fill="black" stroke="black" points="439.09,-149.09 432.06,-141.17 432.61,-151.75 439.09,-149.09"/>
</g>
<!-- 140384374771136 -->
<g id="node29" class="node">
<title>140384374771136</title>
<polygon fill="lightblue" stroke="black" points="511,-273 434,-273 434,-243 511,-243 511,-273"/>
<text text-anchor="middle" x="472.5" y="-261" font-family="monospace" font-size="10.00">fc2.weight</text>
<text text-anchor="middle" x="472.5" y="-250" font-family="monospace" font-size="10.00"> (10, 32)</text>
</g>
<!-- 140384374771136&#45;&gt;140384099943856 -->
<g id="edge27" class="edge">
<title>140384374771136&#45;&gt;140384099943856</title>
<path fill="none" stroke="black" d="M468.06,-242.8C465.19,-233.6 461.42,-221.53 458.31,-211.58"/>
<polygon fill="black" stroke="black" points="461.59,-210.35 455.26,-201.84 454.91,-212.43 461.59,-210.35"/>
</g>
</g>
</svg>
